<svg width="32" height="32" viewBox="0 0 32 32" fill="none" xmlns="http://www.w3.org/2000/svg">
<g id="noto:fire">
<path id="Vector" d="M8.8896 10.183C8.7471 11.703 8.6471 14.393 9.5446 15.538C9.5446 15.538 9.1221 12.583 12.9096 8.87546C14.4346 7.38296 14.7871 5.35296 14.2546 3.83046C13.9521 2.96796 13.3996 2.25546 12.9196 1.75796C12.6396 1.46546 12.8546 0.982963 13.2621 1.00046C15.7271 1.11046 19.7221 1.79546 21.4196 6.05546C22.1646 7.92546 22.2196 9.85796 21.8646 11.823C21.6396 13.078 20.8396 15.868 22.6646 16.2105C23.9671 16.4555 24.5971 15.4205 24.8796 14.6755C24.9971 14.3655 25.4046 14.288 25.6246 14.5355C27.8246 17.038 28.0121 19.9855 27.5571 22.523C26.6771 27.428 21.7096 30.998 16.7746 30.998C10.6096 30.998 5.7021 27.4705 4.4296 21.0855C3.9171 18.508 4.1771 13.408 8.1521 9.80796C8.4471 9.53796 8.9296 9.77796 8.8896 10.183Z" fill="url(#paint0_radial_2601_15748)"/>
<path id="Vector_2" d="M19.0277 19.3553C16.7552 16.4303 17.7727 13.0928 18.3302 11.7628C18.4052 11.5878 18.2052 11.4228 18.0477 11.5303C17.0702 12.1953 15.0677 13.7603 14.1352 15.9628C12.8727 18.9403 12.9627 20.3978 13.7102 22.1778C14.1602 23.2503 13.6377 23.4778 13.3752 23.5178C13.1202 23.5578 12.8852 23.3878 12.6977 23.2103C12.1583 22.6924 11.7739 22.0345 11.5877 21.3103C11.5477 21.1553 11.3452 21.1128 11.2527 21.2403C10.5527 22.2078 10.1902 23.7603 10.1727 24.8578C10.1177 28.2503 12.9202 31.0003 16.3102 31.0003C20.5827 31.0003 23.6952 26.2753 21.2402 22.3253C20.5277 21.1753 19.8577 20.4228 19.0277 19.3553Z" fill="url(#paint1_radial_2601_15748)"/>
</g>
<defs>
<radialGradient id="paint0_radial_2601_15748" cx="0" cy="0" r="1" gradientUnits="userSpaceOnUse" gradientTransform="translate(15.5535 31.0757) rotate(-179.751) scale(17.6469 28.9551)">
<stop offset="0.314" stop-color="#FF9800"/>
<stop offset="0.662" stop-color="#FF6D00"/>
<stop offset="0.972" stop-color="#F44336"/>
</radialGradient>
<radialGradient id="paint1_radial_2601_15748" cx="0" cy="0" r="1" gradientUnits="userSpaceOnUse" gradientTransform="translate(16.5452 13.5149) rotate(90.5787) scale(18.4641 13.8956)">
<stop offset="0.214" stop-color="#FFF176"/>
<stop offset="0.328" stop-color="#FFF27D"/>
<stop offset="0.487" stop-color="#FFF48F"/>
<stop offset="0.672" stop-color="#FFF7AD"/>
<stop offset="0.793" stop-color="#FFF9C4"/>
<stop offset="0.822" stop-color="#FFF8BD" stop-opacity="0.804"/>
<stop offset="0.863" stop-color="#FFF6AB" stop-opacity="0.529"/>
<stop offset="0.91" stop-color="#FFF38D" stop-opacity="0.209"/>
<stop offset="0.941" stop-color="#FFF176" stop-opacity="0"/>
</radialGradient>
</defs>
</svg>
